<?xml version="1.0" standalone="no"?>
<!DOCTYPE svg PUBLIC "-//W3C//DTD SVG 20010904//EN"
 "http://www.w3.org/TR/2001/REC-SVG-20010904/DTD/svg10.dtd">
<svg version="1.0" xmlns="http://www.w3.org/2000/svg"
 width="260.000000pt" height="260.000000pt" viewBox="0 0 260.000000 260.000000"
 preserveAspectRatio="xMidYMid meet">
<metadata>
Created by potrace 1.11, written by Peter Selinger 2001-2013
</metadata>
<g transform="translate(0.000000,260.000000) scale(0.100000,-0.100000)"
fill="#000000" stroke="none">
<path d="M1111 2504 c-503 -84 -903 -489 -987 -999 -26 -159 -7 -423 38 -533
11 -27 11 -27 25 18 7 25 80 266 161 535 l148 490 219 0 219 0 218 -720 c119
-396 219 -730 223 -742 l5 -23 -189 0 -190 0 -37 160 -38 160 -215 -2 -215 -3
-36 -150 c-20 -83 -39 -155 -43 -161 -8 -13 104 -123 190 -186 33 -25 101 -66
151 -91 484 -250 1057 -150 1431 250 45 47 81 92 81 98 0 7 -94 172 -210 365
-115 194 -210 354 -210 356 0 2 101 152 225 333 124 182 225 333 225 336 0 14
-100 132 -161 191 -272 260 -659 380 -1028 318z m729 -1229 l0 -745 -180 0
-180 0 0 745 0 745 180 0 180 0 0 -745z"/>
<path d="M636 1438 c-38 -161 -72 -301 -74 -310 -4 -17 8 -18 148 -18 140 0
152 1 148 18 -2 9 -36 149 -74 310 -38 160 -71 292 -74 292 -3 0 -36 -132 -74
-292z"/>
<path d="M2342 1515 c-62 -85 -112 -159 -112 -163 0 -16 228 -373 233 -365 3
5 14 47 24 93 25 118 25 362 0 480 -10 46 -22 91 -26 98 -5 9 -42 -35 -119
-143z"/>
</g>
</svg>
